<svg xmlns="http://www.w3.org/2000/svg" width="25" height="27" viewBox="0 0 25 27" fill="none">
  <path d="M0 26.558H2.63534L5.8979 23.2955H11.8595C14.5592 23.2955 17.4168 23.5617 19.8676 22.1915C21.8063 21.1075 23.4481 19.4284 24.3336 17.3769C25.2044 15.3591 24.9718 13.3103 24.9718 11.1784C24.9718 8.02293 24.9718 4.86714 24.9718 1.71167L0 26.558Z" fill="#0D0F2E"/>
  <path d="M2.9729 22.0103L24.5564 0.431491C22.0128 0.407804 19.7901 0.063832 17.2466 0.0401443C13.5079 0.0054469 9.10167 -0.40425 6.09 2.40791C3.02528 5.26945 3.35524 9.77778 3.2358 13.6025C3.14806 16.405 3.06064 19.2078 2.9729 22.0103Z" fill="#002E33"/>
  <path d="M24.5565 0.431549L20.8038 4.18321L19.4636 0.130615L24.5565 0.431549Z" fill="black"/>
  <path d="M0 26.5581H2.63534L5.11387 24.0792L3.06905 23.5044L0 26.5581Z" fill="black"/>
</svg>