<svg width="1358" height="222" viewBox="0 0 1358 222" fill="none" xmlns="http://www.w3.org/2000/svg">
<path d="M0 219.906H18.4474L41.2853 197.068H83.0166C101.915 197.068 121.917 198.932 139.073 189.34C152.644 181.752 164.137 169.998 170.335 155.638C176.43 141.513 174.803 127.172 174.803 112.248C174.803 90.1602 174.803 68.0696 174.803 45.9813L0 219.906Z" fill="#5F6070"/>
<path d="M20.8105 188.072L171.895 37.0204C154.09 36.8546 138.531 34.4468 120.726 34.281C94.5556 34.0381 63.7119 31.1703 42.6302 50.8554C21.1772 70.8861 23.4869 102.444 22.6508 129.218C22.0366 148.835 21.4248 168.455 20.8105 188.072Z" fill="#2E324B"/>
<path d="M171.895 37.0199L145.626 63.2815L136.245 34.9133L171.895 37.0199Z" fill="black"/>
<path d="M0 219.906H18.4474L35.7971 202.554L21.4834 198.53L0 219.906Z" fill="black"/>
<path d="M282.885 55.5836H310.432L351.845 157.453L392.519 55.5836H419.511V185H398.99V89.7865L360.165 185H342.231L303.406 89.7865V185H282.885V55.5836ZM437.664 137.855C437.664 128.118 439.575 119.614 443.396 112.342C447.34 104.947 452.763 99.277 459.665 95.3329C466.691 91.2655 474.702 89.2319 483.7 89.2319C492.82 89.2319 500.832 91.0807 507.734 94.7783C514.76 98.4759 520.244 103.714 524.188 110.493C528.256 117.272 530.351 125.222 530.474 134.343C530.474 136.808 530.289 139.334 529.92 141.923H458.556V143.032C459.049 151.29 461.637 157.823 466.321 162.629C471.004 167.436 477.229 169.84 484.994 169.84C491.156 169.84 496.333 168.422 500.524 165.588C504.714 162.629 507.488 158.5 508.843 153.201H528.81C527.085 162.814 522.401 170.703 514.76 176.865C507.241 183.028 497.812 186.109 486.473 186.109C476.612 186.109 467.985 184.137 460.59 180.193C453.318 176.126 447.648 170.456 443.58 163.184C439.636 155.912 437.664 147.469 437.664 137.855ZM510.138 127.317C509.275 120.415 506.502 115.054 501.818 111.233C497.257 107.289 491.465 105.316 484.439 105.316C477.907 105.316 472.237 107.35 467.43 111.418C462.746 115.362 460.035 120.662 459.295 127.317H510.138ZM596.534 89.2319C607.751 89.2319 616.871 92.683 623.897 99.5852C631.046 106.487 634.62 117.58 634.62 132.864V185H614.468V133.973C614.468 124.975 612.557 118.135 608.737 113.451C604.916 108.768 599.308 106.426 591.912 106.426C584.024 106.426 577.8 109.199 573.24 114.745C568.802 120.169 566.584 127.687 566.584 137.301V185H546.617V90.3411H563.995L566.214 102.728C573.363 93.7306 583.47 89.2319 596.534 89.2319ZM658.88 107.905H642.425V90.3411H658.88V63.9032H679.032V90.3411H701.772V107.905H679.032V157.268C679.032 160.966 679.771 163.615 681.25 165.218C682.729 166.697 685.256 167.436 688.83 167.436H703.991V185H684.763C675.765 185 669.171 182.905 664.981 178.714C660.913 174.523 658.88 168.053 658.88 159.302V107.905ZM804.215 167.621V185H793.676C787.514 185 783.077 183.706 780.365 181.118C777.653 178.529 776.298 174.77 776.298 169.84C769.149 180.686 758.734 186.109 745.053 186.109C734.453 186.109 725.948 183.644 719.539 178.714C713.13 173.784 709.925 167.005 709.925 158.377C709.925 148.64 713.377 141.183 720.279 136.007C727.181 130.707 737.226 128.057 750.414 128.057H774.264V122.325C774.264 117.026 772.415 112.897 768.718 109.938C765.02 106.857 759.905 105.316 753.372 105.316C747.58 105.316 742.773 106.611 738.952 109.199C735.254 111.664 733.036 114.992 732.296 119.183H712.699C713.685 109.692 717.875 102.358 725.271 97.1817C732.666 91.8818 742.341 89.2319 754.297 89.2319C766.992 89.2319 776.791 92.19 783.693 98.1061C790.595 104.022 794.046 112.527 794.046 123.62V160.966C794.046 165.403 796.141 167.621 800.332 167.621H804.215ZM774.264 142.847H749.49C743.327 142.847 738.582 144.08 735.254 146.545C731.926 148.887 730.262 152.399 730.262 157.083C730.262 161.15 731.803 164.417 734.884 166.882C738.089 169.347 742.403 170.579 747.826 170.579C756.084 170.579 762.493 168.361 767.054 163.924C771.737 159.486 774.141 153.57 774.264 146.175V142.847Z" fill="black"/>
<path d="M813.982 120.292C813.982 107.473 816.447 96.0724 821.377 86.0889C826.307 76.1053 833.332 68.3404 842.453 62.7939C851.574 57.2475 862.112 54.4743 874.068 54.4743C887.749 54.4743 899.211 58.0487 908.455 65.1974C917.7 72.3461 923.677 82.3913 926.389 95.3329H916.405C913.694 85.2261 908.579 77.4611 901.06 72.038C893.542 66.4916 884.359 63.7183 873.513 63.7183C863.653 63.7183 855.025 66.1218 847.63 70.9287C840.235 75.7356 834.503 82.4529 830.436 91.0807C826.369 99.5852 824.335 109.322 824.335 120.292C824.335 131.261 826.369 141.06 830.436 149.688C834.503 158.192 840.235 164.848 847.63 169.655C855.025 174.462 863.653 176.865 873.513 176.865C884.606 176.865 893.788 174.154 901.06 168.731C908.455 163.307 913.509 155.419 916.22 145.066H926.204C923.369 158.131 917.391 168.237 908.271 175.386C899.273 182.535 887.872 186.109 874.068 186.109C862.112 186.109 851.574 183.398 842.453 177.975C833.332 172.428 826.307 164.663 821.377 154.68C816.447 144.696 813.982 133.233 813.982 120.292ZM1032.54 176.311V185H1026.99C1021.57 185 1017.56 183.644 1014.97 180.933C1012.51 178.221 1011.4 174.4 1011.65 169.47V165.588C1008.81 171.873 1004.37 176.865 998.335 180.563C992.295 184.26 984.777 186.109 975.779 186.109C965.673 186.109 957.6 183.706 951.56 178.899C945.521 174.092 942.501 167.56 942.501 159.302C942.501 150.427 945.644 143.587 951.93 138.78C958.339 133.85 967.521 131.385 979.477 131.385H1011.28V123.25C1011.28 115.485 1008.81 109.445 1003.88 105.132C999.074 100.694 992.295 98.4759 983.544 98.4759C975.779 98.4759 969.432 100.201 964.502 103.653C959.695 107.104 956.675 111.726 955.443 117.519H946.014C947.246 109.014 951.19 102.358 957.846 97.5515C964.502 92.6213 973.191 90.1563 983.914 90.1563C995.623 90.1563 1004.68 93.0527 1011.09 98.8457C1017.5 104.639 1020.71 112.897 1020.71 123.62V167.251C1020.71 170.086 1021.44 172.305 1022.92 173.907C1024.4 175.509 1026.44 176.311 1029.03 176.311H1032.54ZM1011.28 139.519H978.738C970.11 139.519 963.516 141.183 958.955 144.511C954.395 147.839 952.115 152.584 952.115 158.747C952.115 164.54 954.272 169.224 958.586 172.798C963.023 176.249 968.939 177.975 976.334 177.975C987.18 177.975 995.685 175.14 1001.85 169.47C1008.13 163.677 1011.28 156.22 1011.28 147.099V139.519ZM1090.43 90.1563C1098.94 90.1563 1106.52 92.1283 1113.17 96.0724C1119.95 99.8933 1125.19 105.44 1128.89 112.712C1132.71 119.984 1134.62 128.427 1134.62 138.04C1134.62 147.408 1132.71 155.727 1128.89 162.999C1125.19 170.271 1119.95 175.941 1113.17 180.008C1106.52 184.076 1098.94 186.109 1090.43 186.109C1081.68 186.109 1074.16 184.076 1067.88 180.008C1061.72 175.941 1057.28 170.394 1054.57 163.369V221.976H1045.14V91.2655H1053.27L1054.75 112.712C1057.83 105.809 1062.39 100.325 1068.43 96.2573C1074.6 92.19 1081.93 90.1563 1090.43 90.1563ZM1089.69 177.605C1096.6 177.605 1102.7 175.941 1108 172.613C1113.42 169.285 1117.61 164.602 1120.57 158.562C1123.53 152.523 1125.01 145.682 1125.01 138.04C1125.01 130.399 1123.53 123.62 1120.57 117.703C1117.61 111.664 1113.42 106.98 1108 103.653C1102.7 100.201 1096.6 98.4759 1089.69 98.4759C1082.79 98.4759 1076.63 100.201 1071.21 103.653C1065.91 106.98 1061.78 111.664 1058.82 117.703C1055.86 123.62 1054.38 130.337 1054.38 137.855C1054.38 145.62 1055.86 152.523 1058.82 158.562C1061.78 164.602 1065.91 169.285 1071.21 172.613C1076.63 175.941 1082.79 177.605 1089.69 177.605ZM1158.27 56.8778C1160.24 56.8778 1161.84 57.494 1163.08 58.7266C1164.31 59.9591 1164.93 61.5614 1164.93 63.5335C1164.93 65.5055 1164.31 67.1078 1163.08 68.3404C1161.84 69.5729 1160.24 70.1892 1158.27 70.1892C1156.42 70.1892 1154.82 69.5729 1153.46 68.3404C1152.23 67.1078 1151.61 65.5055 1151.61 63.5335C1151.61 61.5614 1152.23 59.9591 1153.46 58.7266C1154.82 57.494 1156.42 56.8778 1158.27 56.8778ZM1153.65 91.2655H1163.08V185H1153.65V91.2655ZM1191.53 99.9549H1173.78V91.2655H1191.53V65.0125H1200.96V91.2655H1225.92V99.9549H1200.96V162.999C1200.96 167.806 1201.94 171.257 1203.92 173.353C1205.89 175.325 1209.22 176.311 1213.9 176.311H1227.58V185H1213.53C1205.64 185 1199.97 183.274 1196.52 179.823C1193.19 176.372 1191.53 170.826 1191.53 163.184V99.9549ZM1324.84 176.311V185H1319.3C1313.87 185 1309.87 183.644 1307.28 180.933C1304.82 178.221 1303.71 174.4 1303.95 169.47V165.588C1301.12 171.873 1296.68 176.865 1290.64 180.563C1284.6 184.26 1277.08 186.109 1268.09 186.109C1257.98 186.109 1249.91 183.706 1243.87 178.899C1237.83 174.092 1234.81 167.56 1234.81 159.302C1234.81 150.427 1237.95 143.587 1244.24 138.78C1250.65 133.85 1259.83 131.385 1271.78 131.385H1303.58V123.25C1303.58 115.485 1301.12 109.445 1296.19 105.132C1291.38 100.694 1284.6 98.4759 1275.85 98.4759C1268.09 98.4759 1261.74 100.201 1256.81 103.653C1252 107.104 1248.98 111.726 1247.75 117.519H1238.32C1239.55 109.014 1243.5 102.358 1250.15 97.5515C1256.81 92.6213 1265.5 90.1563 1276.22 90.1563C1287.93 90.1563 1296.99 93.0527 1303.4 98.8457C1309.81 104.639 1313.01 112.897 1313.01 123.62V167.251C1313.01 170.086 1313.75 172.305 1315.23 173.907C1316.71 175.509 1318.74 176.311 1321.33 176.311H1324.84ZM1303.58 139.519H1271.04C1262.42 139.519 1255.82 141.183 1251.26 144.511C1246.7 147.839 1244.42 152.584 1244.42 158.747C1244.42 164.54 1246.58 169.224 1250.89 172.798C1255.33 176.249 1261.25 177.975 1268.64 177.975C1279.49 177.975 1287.99 175.14 1294.15 169.47C1300.44 163.677 1303.58 156.22 1303.58 147.099V139.519ZM1337.44 55.5836H1346.87V185H1337.44V55.5836Z" fill="#3A3A3A"/>
</svg>
